<svg xmlns="http://www.w3.org/2000/svg" viewBox="0 17.549999237060547 29.5 25.299999237060547" data-asc="0.845"><g fill="#0e3fa3"><g fill="#0e3fa3" transform="translate(0, 0)"><path d="M9.70 32.60Q9.15 33.90 8 33.90Q7.40 33.90 6.98 33.52Q6.55 33.15 6.55 32.60Q6.55 32 7.20 31.40Q5.90 30.85 5.90 29.95Q5.90 29.40 6.38 29Q6.85 28.60 7.65 28.60Q8 28.60 8.20 28.65Q8.30 27.70 8.75 27.15Q9.20 26.60 9.70 26.60Q10.25 26.60 10.70 27.15Q11.15 27.70 11.20 28.65Q11.35 28.60 11.80 28.60Q13.55 28.60 13.55 29.80Q13.55 30.85 12.25 31.40Q12.90 32 12.90 32.60Q12.90 33.15 12.47 33.52Q12.05 33.90 11.45 33.90Q10.25 33.90 9.70 32.60M9.65 31.75Q9.85 32.10 10.50 32.50Q11.15 32.90 11.45 32.90Q11.90 32.90 11.90 32.60Q11.90 31.75 10.65 30.95Q12.55 30.20 12.55 29.95Q12.55 29.60 11.80 29.60L10.25 29.65Q10.10 27.60 9.70 27.60Q9.35 27.60 9.10 29.65Q8.85 29.65 8.60 29.63Q8.35 29.60 8.15 29.60Q6.90 29.60 6.90 29.95Q6.90 30.20 8.80 30.95Q7.55 32.05 7.55 32.60Q7.55 32.90 8 32.90Q8.50 32.90 9 32.52Q9.50 32.15 9.65 31.75M8.65 42.80Q4.50 42.80 2.25 39.90Q0 37 0 32.30Q0 30.15 0.60 27.75Q1.20 25.35 2.40 22.97Q3.60 20.60 5.80 19.07Q8 17.55 10.85 17.55Q15 17.55 17.25 20.45Q19.50 23.35 19.50 28.05Q19.50 30.35 18.75 33Q18.50 34.70 18.43 36.42Q18.35 38.15 19.38 39.45Q20.40 40.75 22.50 40.75Q24.65 40.75 25.93 39.35Q27.20 37.95 27.20 36.10Q27.20 34.95 26.53 34.25Q25.85 33.55 24.95 33.55Q23.50 33.55 22.90 35.05Q23.75 35.05 24.32 35.65Q24.90 36.25 24.90 37.10Q24.90 38.10 24.35 38.65Q23.80 39.20 23.05 39.20Q22.05 39.20 21.35 38.45Q20.65 37.70 20.65 36.30Q20.65 34.55 21.80 33.13Q22.95 31.70 24.85 31.70Q26.85 31.70 28.18 32.95Q29.50 34.20 29.50 36.45Q29.50 39.25 27.35 41.05Q25.20 42.85 22.30 42.85Q17.35 42.85 16.35 38.55Q13.40 42.80 8.65 42.80M8.65 40.45Q12.40 40.45 14.73 36.67Q17.05 32.90 17.05 28.45Q17.05 26.95 16.75 25.52Q16.45 24.10 15.77 22.80Q15.10 21.50 13.85 20.70Q12.60 19.90 10.90 19.90Q7.10 19.90 4.75 23.68Q2.40 27.45 2.40 31.90Q2.40 35.30 3.90 37.88Q5.40 40.45 8.65 40.45Z"/></g></g></svg>