<svg xmlns="http://www.w3.org/2000/svg" viewBox="0 10.149999618530273 37.95000076293945 32.94999694824219" data-asc="0.845"><g fill="#0e3fa3"><g fill="#0e3fa3" transform="translate(0, 0)"><path d="M32.50 20.60Q35.10 21.65 36.52 23.77Q37.95 25.90 37.95 28.65Q37.95 31.40 37.08 34Q36.20 36.60 34.60 38.63Q33 40.65 30.77 41.88Q28.55 43.10 25.85 43.10Q24.50 43.10 23.33 42.77Q22.15 42.45 21.25 41.83Q20.35 41.20 19.83 40.25Q19.30 39.30 19.30 38Q19.30 35.90 20.35 34.40Q21.40 32.90 23.35 32.90Q24.60 32.90 25.33 33.70Q26.05 34.50 26.05 35.50Q26.05 37.40 24.15 37.40Q22.60 37.40 21.70 36.10Q21.40 36.65 21.40 37.45Q21.40 39 22.60 40Q23.80 41 25.50 41Q27.75 41 29.60 39.95Q31.45 38.90 32.77 37.15Q34.10 35.40 34.85 33.15Q35.60 30.90 35.60 28.50Q35.60 26.60 34.65 25Q33.70 23.40 31.95 22.85Q31.65 24.10 30.75 25.43Q29.85 26.75 28.68 27.82Q27.50 28.90 26.18 29.60Q24.85 30.30 23.65 30.30Q21 30.30 21 28.05Q21 26.40 21.80 24.97Q22.60 23.55 23.88 22.50Q25.15 21.45 26.80 20.85Q28.45 20.25 30.20 20.25Q30.50 19.30 30.50 18.20Q30.50 17 30.15 15.97Q29.80 14.95 29.13 14.17Q28.45 13.40 27.45 12.95Q26.45 12.50 25.20 12.50Q24.65 12.50 24.50 12.55Q19.15 27.65 14.30 35.27Q9.45 42.90 4.75 42.90Q2.65 42.90 1.33 41.35Q0 39.80 0 36.95Q0 33.85 1.20 30.65Q2.40 27.45 4.40 24.47Q6.40 21.50 8.98 18.88Q11.55 16.25 14.35 14.32Q17.15 12.40 19.93 11.27Q22.70 10.15 25.05 10.15Q26.70 10.15 28.13 10.80Q29.55 11.45 30.58 12.57Q31.60 13.70 32.20 15.17Q32.80 16.65 32.80 18.30Q32.80 19.50 32.50 20.60M23.95 28.25Q24.45 28.25 25.28 27.70Q26.10 27.15 26.98 26.27Q27.85 25.40 28.58 24.38Q29.30 23.35 29.55 22.40L29.05 22.40Q28 22.40 26.95 22.92Q25.90 23.45 25.08 24.22Q24.25 25 23.75 25.90Q23.25 26.80 23.25 27.55Q23.25 28.25 23.95 28.25M21.65 13.15Q18.30 14.05 13.83 17.77Q9.35 21.50 5.85 26.88Q2.35 32.25 2.35 36.80Q2.35 38.50 3.03 39.48Q3.70 40.45 4.85 40.45Q6.40 40.45 8.15 39Q9.90 37.55 11.25 35.60Q12.60 33.65 14.13 30.70Q15.65 27.75 16.50 25.82Q17.35 23.90 21.65 13.15Z"/></g></g></svg>