<svg xmlns="http://www.w3.org/2000/svg" viewBox="0 4.599999904632568 25.350000381469727 38.30000305175781" data-asc="0.845"><g fill="#0e3fa3"><g fill="#0e3fa3" transform="translate(0, 0)"><path d="M0.15 41Q1.15 38.15 1.98 33.10Q2.80 28.05 3.43 23.40Q4.05 18.75 4.90 14.35Q5.75 9.95 7.25 7.27Q8.75 4.60 10.85 4.60Q12.75 4.60 13.75 5.82Q14.75 7.05 14.75 8.35Q14.75 9.45 14.20 10.82Q13.65 12.20 12.93 13.38Q12.20 14.55 11.05 16Q9.90 17.45 9.15 18.30Q8.40 19.15 7.35 20.30Q6.30 21.45 6.20 21.55L5.90 23.90Q7.45 21.80 10.23 19.92Q13 18.05 15 18.05Q20.15 18.05 20.15 23.30Q20.15 26.05 18.03 30.38Q15.90 34.70 15.90 36.85Q15.90 40.70 18.85 40.70Q20.60 40.70 21.98 39.38Q23.35 38.05 23.35 36.40Q23.35 35.15 22.60 34.15Q22.40 34.95 21.70 35.67Q21 36.40 20 36.40Q19.20 36.40 18.70 35.73Q18.20 35.05 18.20 34.25Q18.20 33.20 19.03 32.33Q19.85 31.45 21.40 31.45Q23.10 31.45 24.23 32.92Q25.35 34.40 25.35 36.50Q25.35 39.35 23.53 41.08Q21.70 42.80 18.85 42.80Q16.20 42.80 14.78 41.20Q13.35 39.60 13.35 37.10Q13.35 34.70 15.50 30.38Q17.65 26.05 17.65 23.55Q17.65 20.65 14.80 20.65Q12.95 20.65 10.13 22.75Q7.30 24.85 5.45 27.45Q4.20 37.70 2.35 42.75Q2.30 42.90 1.95 42.90Q1.15 42.90 0.58 42.55Q0 42.20 0 41.65Q0 41.45 0.15 41M8.75 9.90Q7.55 13.15 6.85 17.40Q9 15.15 10.58 12.70Q12.15 10.25 12.15 8.65Q12.15 8 11.80 7.45Q11.45 6.90 10.80 6.90Q9.85 6.90 8.75 9.90Z"/></g><g fill="#0e3fa3" transform="translate(0, 66.5)"><path d=""/></g></g></svg>