<svg xmlns="http://www.w3.org/2000/svg" viewBox="0 4.599999904632568 14.75 38.150001525878906" data-asc="0.845"><g fill="#0e3fa3"><g fill="#0e3fa3" transform="translate(0, 0)"><path d="M9.45 4.60Q11.30 4.60 12.50 5.80Q13.70 7 13.70 8.85Q13.70 10.95 12.30 12.20Q10.90 13.45 9 13.45Q7.10 13.45 5.90 12.30Q4.70 11.15 4.70 9.30Q4.70 7.45 6.03 6.02Q7.35 4.60 9.45 4.60M9.25 7.15Q8.30 7.15 7.63 7.67Q6.95 8.20 6.95 9.20Q6.95 11 9 11Q9.95 11 10.65 10.50Q11.35 10 11.35 9Q11.35 7.15 9.25 7.15M11.40 39.15Q10.10 38.55 10.10 37.20Q10.10 36.25 10.75 35.55Q11.40 34.85 12.40 34.85Q13.35 34.85 14.05 35.60Q14.75 36.35 14.75 37.35Q14.75 39.65 12.20 41.20Q9.65 42.75 7.05 42.75Q5.05 42.75 3.73 41.70Q2.40 40.65 2.40 38.60Q2.40 36.35 3.90 32.67Q5.40 29 6.90 25.68Q8.40 22.35 8.40 21Q8.40 19.70 7.10 19.70Q6.00 19.70 4.38 20.50Q2.75 21.30 2.25 22.10Q2.85 22.30 3.28 22.80Q3.70 23.30 3.70 23.95Q3.70 24.75 3.15 25.35Q2.60 25.95 1.85 25.95Q0 25.95 0 22.95Q0 20.60 2.23 19.10Q4.45 17.60 7.00 17.60Q8.70 17.60 9.80 18.50Q10.90 19.40 10.90 21.15Q10.90 22.30 9.43 25.60Q7.95 28.90 6.50 32.52Q5.05 36.15 5.05 38.20Q5.05 40.50 7.20 40.50Q9.90 40.50 11.40 39.15Z"/></g><g fill="#0e3fa3" transform="translate(0, 66.5)"><path d=""/></g></g></svg>