<svg xmlns="http://www.w3.org/2000/svg" viewBox="0 10.050000190734863 46.95000076293945 33.35000228881836" data-asc="0.845"><g fill="#0e3fa3"><g fill="#0e3fa3" transform="translate(0, 0)"><path d="M8.25 20.30Q8.25 19.45 8.83 18.82Q9.40 18.20 10.20 18.20Q11 18.20 11.40 18.82Q11.80 19.45 11.80 20.40Q11.80 22.55 9.83 24.63Q7.85 26.70 5.55 26.70Q4.05 26.70 3.08 25.57Q2.10 24.45 2.10 22.50Q2.10 19 5.20 16.02Q8.30 13.05 12.30 11.55Q16.30 10.05 19.70 10.05Q22.25 10.05 23.83 11.47Q25.40 12.90 25.40 15.45Q25.40 19.10 23.80 23.65Q25.45 22.55 27.45 22.55Q29.40 22.55 31.05 23.80Q31.90 22.55 32.90 20.42Q33.90 18.30 34.73 16.67Q35.55 15.05 36.63 13.45Q37.70 11.85 39.15 10.97Q40.60 10.10 42.40 10.10Q44.70 10.10 45.83 11.38Q46.95 12.65 46.95 14.60Q46.95 16.65 45.60 18.85Q44.25 21.05 42.40 21.05Q41.60 21.05 41.03 20.47Q40.45 19.90 40.45 19.05Q40.45 18.10 41.05 17.60Q41.65 17.10 42.55 17.10Q43.35 17.10 44.05 17.55Q45 16.30 45 14.55Q45 12.30 43.05 12.30Q41.15 12.30 39.60 13.70Q38.05 15.10 37.18 16.82Q36.30 18.55 34.98 21.22Q33.65 23.90 32.65 25.40Q33.85 27.10 33.85 29.35Q33.85 30.55 33.33 33.30Q32.80 36.05 32.80 37.30Q32.80 39.05 33.80 40.15Q34.80 41.25 36.45 41.25Q39.35 41.25 40.98 39.52Q42.60 37.80 42.60 34.60Q42.60 32.40 40.85 32.40Q40.85 33.65 40.20 34.40Q39.55 35.15 38.60 35.15Q37.65 35.15 37.05 34.52Q36.45 33.90 36.45 33.05Q36.45 31.60 37.45 31.02Q38.45 30.45 40.60 30.45Q42.65 30.45 43.78 31.70Q44.90 32.95 44.90 34.75Q44.90 38.40 42.58 40.90Q40.25 43.40 36 43.40Q33.55 43.40 31.93 41.60Q30.30 39.80 30.30 37.35Q30.30 35.80 30.85 32.88Q31.40 29.95 31.40 28.70Q31.40 28 31.15 27.35Q28.55 29.95 25.50 29.95Q22.65 29.95 22 28Q18.95 34.25 14.53 38.70Q10.10 43.15 6.15 43.35Q3.15 43.35 1.58 41.70Q0 40.05 0 37.60Q0 34.65 2 32.27Q4 29.90 7.15 29.90Q8.85 29.90 10.45 31.20Q12.05 32.50 12.05 34.20Q12.05 35.15 11.53 35.80Q11 36.45 10 36.45Q9.05 36.45 8.48 35.75Q7.90 35.05 7.90 34.05Q7.90 33.10 8.35 32.35Q7.65 32 6.95 32Q5.20 32 3.95 33.83Q2.70 35.65 2.70 37.60Q2.70 39.15 3.53 40.13Q4.35 41.10 6.10 41.10Q8.95 41.10 13 36.90Q17.05 32.70 20.05 26.60Q23.05 20.50 23.05 15.70Q23.05 12.30 19.30 12.30Q16.45 12.30 13 13.80Q9.55 15.30 7 17.85Q4.45 20.40 4.45 23.05Q4.45 24.65 5.55 24.65Q6.50 24.65 7.53 24Q8.55 23.35 9.20 22.15Q8.25 21.45 8.25 20.30M24.10 26.85Q24.10 27.70 25.20 27.70Q27.65 27.70 29.65 25.60Q28.55 24.90 27.25 24.90Q26.05 24.90 25.13 25.43Q24.20 25.95 24.10 26.85Z"/></g><g fill="#0e3fa3" transform="translate(0, 66.5)"><path d=""/></g></g></svg>