<svg xmlns="http://www.w3.org/2000/svg" viewBox="0 16.600000381469727 36.349998474121094 26.350000381469727" data-asc="0.845"><g fill="#0e3fa3"><g fill="#0e3fa3" transform="translate(0, 0)"><path d="M5.10 38.25Q5.10 39.55 3.45 40.45Q4.05 40.70 4.60 40.70Q6.15 40.70 7.80 38.25Q9.45 35.80 10.58 32.50Q11.70 29.20 12.43 26.07Q13.15 22.95 13.15 21.35Q13.15 19 10.65 19Q8.05 19 5.25 21.07Q2.45 23.15 2.45 25.70Q2.45 26.90 3.05 26.90Q3.10 26.90 3.20 26.32Q3.30 25.75 3.75 25.20Q4.20 24.65 5.10 24.65Q5.95 24.65 6.55 25.22Q7.15 25.80 7.15 26.65Q7.15 27.85 6.05 28.50Q4.95 29.15 3.55 29.15Q2.05 29.15 1.02 28.25Q0 27.35 0 25.45Q0 22 3.50 19.30Q7 16.60 10.95 16.60Q15.65 16.60 15.65 21.45Q15.65 21.60 15.55 22.50Q17.30 20.70 19.88 19.32Q22.45 17.95 24.40 17.95Q28.90 17.95 28.90 22.90Q28.90 25.35 27.27 30.42Q25.65 35.50 25.65 37.10Q25.65 38.65 26.75 39.48Q27.85 40.30 29.45 40.30Q31.25 40.30 32.67 39.17Q34.10 38.05 34.10 36.15Q34.10 35.10 33.48 34.52Q32.85 33.95 32 33.95Q31.40 33.95 30.98 34.23Q30.55 34.50 30.55 34.90Q31.40 35.60 31.40 36.70Q31.40 37.55 30.83 38.02Q30.25 38.50 29.50 38.50Q28.70 38.50 28.13 38Q27.55 37.50 27.55 36.60Q27.55 34.75 28.55 33.42Q29.55 32.10 31.80 32.10Q33.60 32.10 34.98 33.33Q36.35 34.55 36.35 36.40Q36.35 39.30 34.25 40.95Q32.15 42.60 29.35 42.60Q26.75 42.60 24.90 41.15Q23.05 39.70 23.05 37.10Q23.05 35 24.75 30.05Q26.45 25.10 26.45 22.80Q26.45 20.50 24.40 20.50Q22.30 20.50 19.48 22.35Q16.65 24.20 14.85 26.30Q14.25 29.05 13.40 31.67Q12.55 34.30 11.33 36.98Q10.10 39.65 8.40 41.30Q6.70 42.95 4.80 42.95Q3.15 42.95 1.83 41.98Q0.50 41 0.50 39.20Q0.50 37.90 1.27 37.20Q2.05 36.50 3.05 36.50Q3.95 36.50 4.53 36.95Q5.10 37.40 5.10 38.25Z"/></g></g></svg>