<svg xmlns="http://www.w3.org/2000/svg" viewBox="0 17.600000381469727 16.950000762939453 25.19999885559082" data-asc="0.845"><g fill="#0e3fa3"><g fill="#0e3fa3" transform="translate(0, 0)"><path d="M1.75 22.25Q2.95 22.25 3.65 22.90Q4.35 23.55 4.35 24.40Q4.35 25.05 3.95 25.47Q3.55 25.90 2.85 25.90Q1.50 25.90 0.75 24.93Q0 23.95 0 22.20Q0 20.20 1.08 18.90Q2.15 17.60 4.20 17.60Q5.45 17.60 7.15 18.67Q8.85 19.75 9.70 19.75Q10.80 19.75 12.50 18.72Q14.20 17.70 15.05 17.60Q15.95 17.60 16.45 18.02Q16.95 18.45 16.95 19.15Q16.95 20.90 15.60 23.22Q14.25 25.55 12.60 27.55Q10.95 29.55 9.33 32.50Q7.70 35.45 7.70 37.35Q7.70 40.60 10.55 40.60Q12.30 40.60 13.55 39.55Q12.95 39.35 12.45 38.55Q11.95 37.75 11.95 37.05Q11.95 36.10 12.53 35.38Q13.10 34.65 14.05 34.65Q15 34.65 15.65 35.35Q16.30 36.05 16.30 37Q16.30 39.65 14.38 41.23Q12.45 42.80 10.15 42.80Q7.90 42.80 6.55 41.30Q5.20 39.80 5.10 37.55Q5.10 35.15 6.60 32.30Q8.10 29.45 10.98 25.52Q13.85 21.60 14.65 20.30Q12.20 22.25 9.70 22.25Q8 22.25 6.05 21.13Q4.10 20 3.55 20Q1.95 20 1.75 22.25Z"/></g><g fill="#0e3fa3" transform="translate(0, 66.5)"><path d=""/></g></g></svg>