<svg xmlns="http://www.w3.org/2000/svg" viewBox="0 17.200000762939453 17.700000762939453 25.599998474121094" data-asc="0.845"><g fill="#0e3fa3"><g fill="#0e3fa3" transform="translate(0, 0)"><path d="M10.35 24.80Q10.35 24.05 10.98 23.52Q11.60 23 12.50 23Q13.85 23 14.50 23.50Q14.90 22.80 14.90 22.25Q14.90 21.60 14.50 21.02Q14.10 20.45 13.43 20.05Q12.75 19.65 11.90 19.42Q11.05 19.20 10.15 19.20Q7.65 19.20 5.97 20.15Q4.30 21.10 4.30 23.35Q4.30 24.70 5.30 25.65Q6.30 26.60 7.78 27.35Q9.25 28.10 11 28.82Q12.75 29.55 14.23 30.45Q15.70 31.35 16.70 32.58Q17.70 33.80 17.70 35.60Q17.70 39.35 15.05 41.08Q12.40 42.80 8.05 42.80Q6.50 42.80 5.05 42.35Q3.60 41.90 2.48 41.08Q1.35 40.25 0.68 39.10Q0 37.95 0 36.50Q0 35.30 0.48 34.25Q0.95 33.20 1.80 32.45Q2.65 31.70 3.80 31.27Q4.95 30.85 6.30 30.85Q7.30 30.85 8.03 31.42Q8.75 32 8.75 32.85Q8.75 33.70 8.03 34.27Q7.30 34.85 6.30 34.85Q5.45 34.85 4.63 34.38Q3.80 33.90 3.55 33.25Q2.50 34.40 2.50 36.25Q2.50 37.30 2.98 38.13Q3.45 38.95 4.28 39.50Q5.10 40.05 6.20 40.35Q7.30 40.65 8.50 40.65Q9.80 40.65 10.98 40.33Q12.15 40 13.05 39.40Q13.95 38.80 14.48 37.90Q15 37 15 35.85Q15 34.40 14 33.40Q13 32.40 11.50 31.60Q10 30.80 8.28 30.10Q6.55 29.40 5.05 28.52Q3.55 27.65 2.55 26.55Q1.55 25.45 1.55 23.80Q1.55 22.10 2.23 20.85Q2.90 19.60 4.08 18.77Q5.25 17.95 6.78 17.57Q8.30 17.20 10 17.20Q13 17.20 14.98 18.52Q16.95 19.85 16.95 22.60Q16.95 24.10 15.85 25.35Q14.75 26.60 12.80 26.60Q11.80 26.60 11.08 26.13Q10.35 25.65 10.35 24.80Z"/></g><g fill="#0e3fa3" transform="translate(0, 66.5)"><path d=""/></g></g></svg>