<svg xmlns="http://www.w3.org/2000/svg" viewBox="0 4.599999904632568 353.75 38.35000228881836" data-asc="0.845"><g fill="#0e3fa3"><g fill="#0e3fa3" transform="translate(0, 0)"><path d="M25.25 9.65Q25.25 11.35 24.28 12.50Q23.30 13.65 21.55 13.65Q20.45 13.65 19.68 13.10Q18.90 12.55 18.90 11.45Q18.90 10.70 19.35 10.20Q19.80 9.70 20.60 9.70Q21.85 9.70 22.25 11.30Q23.20 11.05 23.20 9.15Q23.20 8.25 22.48 7.57Q21.75 6.90 20.60 6.90Q19.55 6.90 18.70 7.23Q17.85 7.55 17.23 8.32Q16.60 9.10 16.13 9.90Q15.65 10.70 15.32 12.07Q15 13.45 14.78 14.52Q14.55 15.60 14.38 17.42Q14.20 19.25 14.13 20.40Q14.05 21.55 13.93 23.63Q13.80 25.70 13.70 26.80Q15.50 25.60 18.10 25.35Q18.45 23.65 18.83 22.50Q19.20 21.35 19.93 20.15Q20.65 18.95 21.93 18.32Q23.20 17.70 25 17.70Q27.15 17.70 28.78 18.90Q30.40 20.10 30.40 22.25Q30.40 23.25 29.75 24.10Q29.10 24.95 28.15 24.95Q27.30 24.95 26.78 24.38Q26.25 23.80 26.25 23Q26.25 21.55 27.45 20.90Q26.60 19.75 25.20 19.75Q22.85 19.75 21.88 21.22Q20.90 22.70 20.40 25.45Q22.05 25.85 22.98 27.05Q23.90 28.25 23.90 30.05Q23.90 31.80 23.48 34.27Q23.05 36.75 23.05 37.75Q23.05 39 23.90 39.75Q24.75 40.50 25.75 40.50Q27.20 40.50 28.43 39.60Q29.65 38.70 29.75 37.40Q27.40 37.40 27.25 35.40Q27.30 34.50 27.88 33.90Q28.45 33.30 29.40 33.30Q30.65 33.30 31.45 34.48Q32.25 35.65 32.25 37.05Q32.25 39.45 30.35 41.13Q28.45 42.80 26 42.80Q23.70 42.80 22.13 41.45Q20.55 40.10 20.55 37.50Q20.55 36.75 20.93 33.92Q21.30 31.10 21.30 30Q21.30 28.80 20.48 28.23Q19.65 27.65 18.55 27.65Q16.30 27.65 13.50 29.30Q13.25 32.30 12.78 34.48Q12.30 36.65 11.43 38.65Q10.55 40.65 9.05 41.70Q7.55 42.75 5.40 42.80Q2.90 42.80 1.45 41.50Q0 40.20 0 37.60Q0 35.50 1.48 34.27Q2.95 33.05 4.60 33.05Q5.55 33.05 6.20 33.70Q6.85 34.35 6.85 35.30Q6.85 36.25 6.20 36.90Q5.55 37.55 4.60 37.55Q3.35 37.55 2.70 36.55Q2.40 37.15 2.40 38Q2.40 39.05 3.08 39.67Q3.75 40.30 5.10 40.30Q7.50 40.30 8.88 38.38Q10.25 36.45 10.73 33.33Q11.20 30.20 11.35 26.45Q11.50 22.70 11.80 18.92Q12.10 15.15 12.80 11.97Q13.50 8.80 15.38 6.77Q17.25 4.75 20.25 4.60Q22.65 4.60 23.95 6.02Q25.25 7.45 25.25 9.65ZM37.35 22.25Q38.55 22.25 39.25 22.90Q39.95 23.55 39.95 24.40Q39.95 25.05 39.55 25.47Q39.15 25.90 38.45 25.90Q37.10 25.90 36.35 24.93Q35.60 23.95 35.60 22.20Q35.60 20.20 36.68 18.90Q37.75 17.60 39.80 17.60Q41.05 17.60 42.75 18.67Q44.45 19.75 45.30 19.75Q46.40 19.75 48.10 18.72Q49.80 17.70 50.65 17.60Q51.55 17.60 52.05 18.02Q52.55 18.45 52.55 19.15Q52.55 20.90 51.20 23.22Q49.85 25.55 48.20 27.55Q46.55 29.55 44.93 32.50Q43.30 35.45 43.30 37.35Q43.30 40.60 46.15 40.60Q47.90 40.60 49.15 39.55Q48.55 39.35 48.05 38.55Q47.55 37.75 47.55 37.05Q47.55 36.10 48.13 35.38Q48.70 34.65 49.65 34.65Q50.60 34.65 51.25 35.35Q51.90 36.05 51.90 37Q51.90 39.65 49.98 41.23Q48.05 42.80 45.75 42.80Q43.50 42.80 42.15 41.30Q40.80 39.80 40.70 37.55Q40.70 35.15 42.20 32.30Q43.70 29.45 46.58 25.52Q49.45 21.60 50.25 20.30Q47.80 22.25 45.30 22.25Q43.60 22.25 41.65 21.13Q39.70 20 39.15 20Q37.55 20 37.35 22.25ZM64.80 4.60Q66.65 4.60 67.85 5.80Q69.05 7 69.05 8.85Q69.05 10.95 67.65 12.20Q66.25 13.45 64.35 13.45Q62.45 13.45 61.25 12.30Q60.05 11.15 60.05 9.30Q60.05 7.45 61.38 6.02Q62.70 4.60 64.80 4.60M64.60 7.15Q63.65 7.15 62.98 7.67Q62.30 8.20 62.30 9.20Q62.30 11 64.35 11Q65.30 11 66 10.50Q66.70 10 66.70 9Q66.70 7.15 64.60 7.15M66.75 39.15Q65.45 38.55 65.45 37.20Q65.45 36.25 66.10 35.55Q66.75 34.85 67.75 34.85Q68.70 34.85 69.40 35.60Q70.10 36.35 70.10 37.35Q70.10 39.65 67.55 41.20Q65 42.75 62.40 42.75Q60.40 42.75 59.08 41.70Q57.75 40.65 57.75 38.60Q57.75 36.35 59.25 32.67Q60.75 29 62.25 25.68Q63.75 22.35 63.75 21Q63.75 19.70 62.45 19.70Q61.35 19.70 59.73 20.50Q58.10 21.30 57.60 22.10Q58.20 22.30 58.63 22.80Q59.05 23.30 59.05 23.95Q59.05 24.75 58.50 25.35Q57.95 25.95 57.20 25.95Q55.35 25.95 55.35 22.95Q55.35 20.60 57.58 19.10Q59.80 17.60 62.35 17.60Q64.05 17.60 65.15 18.50Q66.25 19.40 66.25 21.15Q66.25 22.30 64.78 25.60Q63.30 28.90 61.85 32.52Q60.40 36.15 60.40 38.20Q60.40 40.50 62.55 40.50Q65.25 40.50 66.75 39.15ZM84.50 24.80Q84.50 24.05 85.13 23.52Q85.75 23 86.65 23Q88 23 88.65 23.50Q89.05 22.80 89.05 22.25Q89.05 21.60 88.65 21.02Q88.25 20.45 87.58 20.05Q86.90 19.65 86.05 19.42Q85.20 19.20 84.30 19.20Q81.80 19.20 80.13 20.15Q78.45 21.10 78.45 23.35Q78.45 24.70 79.45 25.65Q80.45 26.60 81.93 27.35Q83.40 28.10 85.15 28.82Q86.90 29.55 88.38 30.45Q89.85 31.35 90.85 32.58Q91.85 33.80 91.85 35.60Q91.85 39.35 89.20 41.08Q86.55 42.80 82.20 42.80Q80.65 42.80 79.20 42.35Q77.75 41.90 76.63 41.08Q75.50 40.25 74.83 39.10Q74.15 37.95 74.15 36.50Q74.15 35.30 74.63 34.25Q75.10 33.20 75.95 32.45Q76.80 31.70 77.95 31.27Q79.10 30.85 80.45 30.85Q81.45 30.85 82.18 31.42Q82.90 32 82.90 32.85Q82.90 33.70 82.18 34.27Q81.45 34.85 80.45 34.85Q79.60 34.85 78.78 34.38Q77.95 33.90 77.70 33.25Q76.65 34.40 76.65 36.25Q76.65 37.30 77.13 38.13Q77.60 38.95 78.43 39.50Q79.25 40.05 80.35 40.35Q81.45 40.65 82.65 40.65Q83.95 40.65 85.13 40.33Q86.30 40 87.20 39.40Q88.10 38.80 88.63 37.90Q89.15 37 89.15 35.85Q89.15 34.40 88.15 33.40Q87.15 32.40 85.65 31.60Q84.15 30.80 82.43 30.10Q80.70 29.40 79.20 28.52Q77.70 27.65 76.70 26.55Q75.70 25.45 75.70 23.80Q75.70 22.10 76.38 20.85Q77.05 19.60 78.23 18.77Q79.40 17.95 80.93 17.57Q82.45 17.20 84.15 17.20Q87.15 17.20 89.13 18.52Q91.10 19.85 91.10 22.60Q91.10 24.10 90 25.35Q88.90 26.60 86.95 26.60Q85.95 26.60 85.23 26.13Q84.50 25.65 84.50 24.80ZM95.75 41Q96.75 38.15 97.58 33.10Q98.40 28.05 99.03 23.40Q99.65 18.75 100.50 14.35Q101.35 9.95 102.85 7.27Q104.35 4.60 106.45 4.60Q108.35 4.60 109.35 5.82Q110.35 7.05 110.35 8.35Q110.35 9.45 109.80 10.82Q109.25 12.20 108.53 13.38Q107.80 14.55 106.65 16Q105.50 17.45 104.75 18.30Q104.00 19.15 102.95 20.30Q101.90 21.45 101.80 21.55L101.50 23.90Q103.05 21.80 105.83 19.92Q108.60 18.05 110.60 18.05Q115.75 18.05 115.75 23.30Q115.75 26.05 113.63 30.38Q111.50 34.70 111.50 36.85Q111.50 40.70 114.45 40.70Q116.20 40.70 117.58 39.38Q118.95 38.05 118.95 36.40Q118.95 35.15 118.20 34.15Q118.00 34.95 117.30 35.67Q116.60 36.40 115.60 36.40Q114.80 36.40 114.30 35.73Q113.80 35.05 113.80 34.25Q113.80 33.20 114.63 32.33Q115.45 31.45 117.00 31.45Q118.70 31.45 119.83 32.92Q120.95 34.40 120.95 36.50Q120.95 39.35 119.13 41.08Q117.30 42.80 114.45 42.80Q111.80 42.80 110.38 41.20Q108.95 39.60 108.95 37.10Q108.95 34.70 111.10 30.38Q113.25 26.05 113.25 23.55Q113.25 20.65 110.40 20.65Q108.55 20.65 105.73 22.75Q102.90 24.85 101.05 27.45Q99.80 37.70 97.95 42.75Q97.90 42.90 97.55 42.90Q96.75 42.90 96.18 42.55Q95.60 42.20 95.60 41.65Q95.60 41.45 95.75 41M104.35 9.90Q103.15 13.15 102.45 17.40Q104.60 15.15 106.18 12.70Q107.75 10.25 107.75 8.65Q107.75 8 107.40 7.45Q107.05 6.90 106.40 6.90Q105.45 6.90 104.35 9.90ZM129.15 38.25Q129.15 39.55 127.50 40.45Q128.10 40.70 128.65 40.70Q130.20 40.70 131.85 38.25Q133.50 35.80 134.63 32.50Q135.75 29.20 136.48 26.07Q137.20 22.95 137.20 21.35Q137.20 19 134.70 19Q132.10 19 129.30 21.07Q126.50 23.15 126.50 25.70Q126.50 26.90 127.10 26.90Q127.15 26.90 127.25 26.32Q127.35 25.75 127.80 25.20Q128.25 24.65 129.15 24.65Q130.00 24.65 130.60 25.22Q131.20 25.80 131.20 26.65Q131.20 27.85 130.10 28.50Q129.00 29.15 127.60 29.15Q126.10 29.15 125.08 28.25Q124.05 27.35 124.05 25.45Q124.05 22 127.55 19.30Q131.05 16.60 135.00 16.60Q139.70 16.60 139.70 21.45Q139.70 21.60 139.60 22.50Q141.35 20.70 143.93 19.32Q146.50 17.95 148.45 17.95Q152.95 17.95 152.95 22.90Q152.95 25.35 151.33 30.42Q149.70 35.50 149.70 37.10Q149.70 38.65 150.80 39.48Q151.90 40.30 153.50 40.30Q155.30 40.30 156.73 39.17Q158.15 38.05 158.15 36.15Q158.15 35.10 157.53 34.52Q156.90 33.95 156.05 33.95Q155.45 33.95 155.03 34.23Q154.60 34.50 154.60 34.90Q155.45 35.60 155.45 36.70Q155.45 37.55 154.88 38.02Q154.30 38.50 153.55 38.50Q152.75 38.50 152.18 38Q151.60 37.50 151.60 36.60Q151.60 34.75 152.60 33.42Q153.60 32.10 155.85 32.10Q157.65 32.10 159.03 33.33Q160.40 34.55 160.40 36.40Q160.40 39.30 158.30 40.95Q156.20 42.60 153.40 42.60Q150.80 42.60 148.95 41.15Q147.10 39.70 147.10 37.10Q147.10 35 148.80 30.05Q150.50 25.10 150.50 22.80Q150.50 20.50 148.45 20.50Q146.35 20.50 143.53 22.35Q140.70 24.20 138.90 26.30Q138.30 29.05 137.45 31.67Q136.60 34.30 135.38 36.98Q134.15 39.65 132.45 41.30Q130.75 42.95 128.85 42.95Q127.20 42.95 125.88 41.98Q124.55 41 124.55 39.20Q124.55 37.90 125.33 37.20Q126.10 36.50 127.10 36.50Q128.00 36.50 128.58 36.95Q129.15 37.40 129.15 38.25ZM172.65 32.60Q172.10 33.90 170.95 33.90Q170.35 33.90 169.93 33.52Q169.50 33.15 169.50 32.60Q169.50 32 170.15 31.40Q168.85 30.85 168.85 29.95Q168.85 29.40 169.33 29Q169.80 28.60 170.60 28.60Q170.95 28.60 171.15 28.65Q171.25 27.70 171.70 27.15Q172.15 26.60 172.65 26.60Q173.20 26.60 173.65 27.15Q174.10 27.70 174.15 28.65Q174.30 28.60 174.75 28.60Q176.50 28.60 176.50 29.80Q176.50 30.85 175.20 31.40Q175.85 32 175.85 32.60Q175.85 33.15 175.43 33.52Q175.00 33.90 174.40 33.90Q173.20 33.90 172.65 32.60M172.60 31.75Q172.80 32.10 173.45 32.50Q174.10 32.90 174.40 32.90Q174.85 32.90 174.85 32.60Q174.85 31.75 173.60 30.95Q175.50 30.20 175.50 29.95Q175.50 29.60 174.75 29.60L173.20 29.65Q173.05 27.60 172.65 27.60Q172.30 27.60 172.05 29.65Q171.80 29.65 171.55 29.63Q171.30 29.60 171.10 29.60Q169.85 29.60 169.85 29.95Q169.85 30.20 171.75 30.95Q170.50 32.05 170.50 32.60Q170.50 32.90 170.95 32.90Q171.45 32.90 171.95 32.52Q172.45 32.15 172.60 31.75M171.60 42.80Q167.45 42.80 165.20 39.90Q162.95 37 162.95 32.30Q162.95 30.15 163.55 27.75Q164.15 25.35 165.35 22.97Q166.55 20.60 168.75 19.07Q170.95 17.55 173.80 17.55Q177.95 17.55 180.20 20.45Q182.45 23.35 182.45 28.05Q182.45 30.35 181.70 33Q181.45 34.70 181.38 36.42Q181.30 38.15 182.33 39.45Q183.35 40.75 185.45 40.75Q187.60 40.75 188.88 39.35Q190.15 37.95 190.15 36.10Q190.15 34.95 189.48 34.25Q188.80 33.55 187.90 33.55Q186.45 33.55 185.85 35.05Q186.70 35.05 187.28 35.65Q187.85 36.25 187.85 37.10Q187.85 38.10 187.30 38.65Q186.75 39.20 186.00 39.20Q185.00 39.20 184.30 38.45Q183.60 37.70 183.60 36.30Q183.60 34.55 184.75 33.13Q185.90 31.70 187.80 31.70Q189.80 31.70 191.13 32.95Q192.45 34.20 192.45 36.45Q192.45 39.25 190.30 41.05Q188.15 42.85 185.25 42.85Q180.30 42.85 179.30 38.55Q176.35 42.80 171.60 42.80M171.60 40.45Q175.35 40.45 177.68 36.67Q180.00 32.90 180.00 28.45Q180.00 26.95 179.70 25.52Q179.40 24.10 178.73 22.80Q178.05 21.50 176.80 20.70Q175.55 19.90 173.85 19.90Q170.05 19.90 167.70 23.68Q165.35 27.45 165.35 31.90Q165.35 35.30 166.85 37.88Q168.35 40.45 171.60 40.45ZM194.90 9.15Q194.90 6.90 196.25 5.75Q197.60 4.60 199.35 4.60Q201.00 4.60 202.38 5.77Q203.75 6.95 203.75 9.30Q203.75 10.40 203.63 11.42Q203.50 12.45 203.23 13.63Q202.95 14.80 202.58 16.15Q202.20 17.50 201.70 19.20Q201.20 20.80 200.80 22.30Q200.40 23.80 200.10 25.20Q201.55 21.45 204.20 19.50Q206.85 17.55 210.00 17.55Q211.80 17.55 213.28 18.32Q214.75 19.10 215.80 20.40Q216.85 21.70 217.40 23.47Q217.95 25.25 217.95 27.25Q217.95 30 217.03 32.77Q216.10 35.55 214.40 37.77Q212.70 40 210.28 41.40Q207.85 42.80 204.85 42.80Q201.25 42.80 199.03 40.15Q196.80 37.50 196.80 32.35Q196.80 27.75 199.05 19.95Q201.30 12.15 201.30 9.50Q201.30 8.35 200.80 7.57Q200.30 6.80 199.50 6.80Q198.80 6.80 198.00 7.50Q198.65 8.15 198.65 9.15Q198.65 10.05 198.10 10.67Q197.55 11.30 196.75 11.30Q195.95 11.30 195.43 10.67Q194.90 10.05 194.90 9.15M206.20 33.60Q205.05 32.60 205.05 31.05Q205.05 30 205.68 29.40Q206.30 28.80 207.10 28.80Q208.00 28.80 208.60 29.45Q209.20 30.10 209.20 31.35Q209.20 33.20 208.20 34.33Q207.20 35.45 205.30 35.45Q202.60 35.45 201.23 33.38Q199.85 31.30 199.85 27.65Q199.25 30.35 199.25 32.70Q199.25 36.15 200.73 38.27Q202.20 40.40 205.25 40.40Q207.35 40.40 209.23 39.30Q211.10 38.20 212.53 36.40Q213.95 34.60 214.78 32.27Q215.60 29.95 215.60 27.50Q215.60 23.75 213.93 21.85Q212.25 19.95 209.95 19.95Q208.45 19.95 207.05 20.60Q205.65 21.25 204.53 22.38Q203.40 23.50 202.73 25.02Q202.05 26.55 202.05 28.35Q202.05 29.25 202.33 30.17Q202.60 31.10 203.13 31.85Q203.65 32.60 204.43 33.08Q205.20 33.55 206.20 33.60ZM231.50 32.60Q230.95 33.90 229.80 33.90Q229.20 33.90 228.78 33.52Q228.35 33.15 228.35 32.60Q228.35 32 229.00 31.40Q227.70 30.85 227.70 29.95Q227.70 29.40 228.18 29Q228.65 28.60 229.45 28.60Q229.80 28.60 230.00 28.65Q230.10 27.70 230.55 27.15Q231.00 26.60 231.50 26.60Q232.05 26.60 232.50 27.15Q232.95 27.70 233.00 28.65Q233.15 28.60 233.60 28.60Q235.35 28.60 235.35 29.80Q235.35 30.85 234.05 31.40Q234.70 32 234.70 32.60Q234.70 33.15 234.28 33.52Q233.85 33.90 233.25 33.90Q232.05 33.90 231.50 32.60M231.45 31.75Q231.65 32.10 232.30 32.50Q232.95 32.90 233.25 32.90Q233.70 32.90 233.70 32.60Q233.70 31.75 232.45 30.95Q234.35 30.20 234.35 29.95Q234.35 29.60 233.60 29.60L232.05 29.65Q231.90 27.60 231.50 27.60Q231.15 27.60 230.90 29.65Q230.65 29.65 230.40 29.63Q230.15 29.60 229.95 29.60Q228.70 29.60 228.70 29.95Q228.70 30.20 230.60 30.95Q229.35 32.05 229.35 32.60Q229.35 32.90 229.80 32.90Q230.30 32.90 230.80 32.52Q231.30 32.15 231.45 31.75M230.45 42.80Q226.30 42.80 224.05 39.90Q221.80 37 221.80 32.30Q221.80 30.15 222.40 27.75Q223.00 25.35 224.20 22.97Q225.40 20.60 227.60 19.07Q229.80 17.55 232.65 17.55Q236.80 17.55 239.05 20.45Q241.30 23.35 241.30 28.05Q241.30 30.35 240.55 33Q240.30 34.70 240.23 36.42Q240.15 38.15 241.18 39.45Q242.20 40.75 244.30 40.75Q246.45 40.75 247.73 39.35Q249.00 37.95 249.00 36.10Q249.00 34.95 248.33 34.25Q247.65 33.55 246.75 33.55Q245.30 33.55 244.70 35.05Q245.55 35.05 246.13 35.65Q246.70 36.25 246.70 37.10Q246.70 38.10 246.15 38.65Q245.60 39.20 244.85 39.20Q243.85 39.20 243.15 38.45Q242.45 37.70 242.45 36.30Q242.45 34.55 243.60 33.13Q244.75 31.70 246.65 31.70Q248.65 31.70 249.98 32.95Q251.30 34.20 251.30 36.45Q251.30 39.25 249.15 41.05Q247.00 42.85 244.10 42.85Q239.15 42.85 238.15 38.55Q235.20 42.80 230.45 42.80M230.45 40.45Q234.20 40.45 236.53 36.67Q238.85 32.90 238.85 28.45Q238.85 26.95 238.55 25.52Q238.25 24.10 237.58 22.80Q236.90 21.50 235.65 20.70Q234.40 19.90 232.70 19.90Q228.90 19.90 226.55 23.68Q224.20 27.45 224.20 31.90Q224.20 35.30 225.70 37.88Q227.20 40.45 230.45 40.45ZM278.55 9.65Q278.55 11.35 277.58 12.50Q276.60 13.65 274.85 13.65Q273.75 13.65 272.98 13.10Q272.20 12.55 272.20 11.45Q272.20 10.70 272.65 10.20Q273.10 9.70 273.90 9.70Q275.15 9.70 275.55 11.30Q276.50 11.05 276.50 9.15Q276.50 8.25 275.78 7.57Q275.05 6.90 273.90 6.90Q272.85 6.90 272.00 7.23Q271.15 7.55 270.53 8.32Q269.90 9.10 269.43 9.90Q268.95 10.70 268.63 12.07Q268.30 13.45 268.08 14.52Q267.85 15.60 267.68 17.42Q267.50 19.25 267.43 20.40Q267.35 21.55 267.23 23.63Q267.10 25.70 267.00 26.80Q268.80 25.60 271.40 25.35Q271.75 23.65 272.13 22.50Q272.50 21.35 273.23 20.15Q273.95 18.95 275.23 18.32Q276.50 17.70 278.30 17.70Q280.45 17.70 282.08 18.90Q283.70 20.10 283.70 22.25Q283.70 23.25 283.05 24.10Q282.40 24.95 281.45 24.95Q280.60 24.95 280.08 24.38Q279.55 23.80 279.55 23Q279.55 21.55 280.75 20.90Q279.90 19.75 278.50 19.75Q276.15 19.75 275.18 21.22Q274.20 22.70 273.70 25.45Q275.35 25.85 276.28 27.05Q277.20 28.25 277.20 30.05Q277.20 31.80 276.78 34.27Q276.35 36.75 276.35 37.75Q276.35 39 277.20 39.75Q278.05 40.50 279.05 40.50Q280.50 40.50 281.73 39.60Q282.95 38.70 283.05 37.40Q280.70 37.40 280.55 35.40Q280.60 34.50 281.18 33.90Q281.75 33.30 282.70 33.30Q283.95 33.30 284.75 34.48Q285.55 35.65 285.55 37.05Q285.55 39.45 283.65 41.13Q281.75 42.80 279.30 42.80Q277.00 42.80 275.43 41.45Q273.85 40.10 273.85 37.50Q273.85 36.75 274.23 33.92Q274.60 31.10 274.60 30Q274.60 28.80 273.78 28.23Q272.95 27.65 271.85 27.65Q269.60 27.65 266.80 29.30Q266.55 32.30 266.08 34.48Q265.60 36.65 264.73 38.65Q263.85 40.65 262.35 41.70Q260.85 42.75 258.70 42.80Q256.20 42.80 254.75 41.50Q253.30 40.20 253.30 37.60Q253.30 35.50 254.78 34.27Q256.25 33.05 257.90 33.05Q258.85 33.05 259.50 33.70Q260.15 34.35 260.15 35.30Q260.15 36.25 259.50 36.90Q258.85 37.55 257.90 37.55Q256.65 37.55 256.00 36.55Q255.70 37.15 255.70 38Q255.70 39.05 256.38 39.67Q257.05 40.30 258.40 40.30Q260.80 40.30 262.18 38.38Q263.55 36.45 264.03 33.33Q264.50 30.20 264.65 26.45Q264.80 22.70 265.10 18.92Q265.40 15.15 266.10 11.97Q266.80 8.80 268.68 6.77Q270.55 4.75 273.55 4.60Q275.95 4.60 277.25 6.02Q278.55 7.45 278.55 9.65ZM299.75 24.80Q299.75 24.05 300.38 23.52Q301.00 23 301.90 23Q303.25 23 303.90 23.50Q304.30 22.80 304.30 22.25Q304.30 21.60 303.90 21.02Q303.50 20.45 302.83 20.05Q302.15 19.65 301.30 19.42Q300.45 19.20 299.55 19.20Q297.05 19.20 295.38 20.15Q293.70 21.10 293.70 23.35Q293.70 24.70 294.70 25.65Q295.70 26.60 297.18 27.35Q298.65 28.10 300.40 28.82Q302.15 29.55 303.63 30.45Q305.10 31.35 306.10 32.58Q307.10 33.80 307.10 35.60Q307.10 39.35 304.45 41.08Q301.80 42.80 297.45 42.80Q295.90 42.80 294.45 42.35Q293.00 41.90 291.88 41.08Q290.75 40.25 290.08 39.10Q289.40 37.95 289.40 36.50Q289.40 35.30 289.88 34.25Q290.35 33.20 291.20 32.45Q292.05 31.70 293.20 31.27Q294.35 30.85 295.70 30.85Q296.70 30.85 297.43 31.42Q298.15 32 298.15 32.85Q298.15 33.70 297.43 34.27Q296.70 34.85 295.70 34.85Q294.85 34.85 294.03 34.38Q293.20 33.90 292.95 33.25Q291.90 34.40 291.90 36.25Q291.90 37.30 292.38 38.13Q292.85 38.95 293.68 39.50Q294.50 40.05 295.60 40.35Q296.70 40.65 297.90 40.65Q299.20 40.65 300.38 40.33Q301.55 40 302.45 39.40Q303.35 38.80 303.88 37.90Q304.40 37 304.40 35.85Q304.40 34.40 303.40 33.40Q302.40 32.40 300.90 31.60Q299.40 30.80 297.68 30.10Q295.95 29.40 294.45 28.52Q292.95 27.65 291.95 26.55Q290.95 25.45 290.95 23.80Q290.95 22.10 291.63 20.85Q292.30 19.60 293.48 18.77Q294.65 17.95 296.18 17.57Q297.70 17.20 299.40 17.20Q302.40 17.20 304.38 18.52Q306.35 19.85 306.35 22.60Q306.35 24.10 305.25 25.35Q304.15 26.60 302.20 26.60Q301.20 26.60 300.48 26.13Q299.75 25.65 299.75 24.80ZM311.00 41Q312.00 38.15 312.83 33.10Q313.65 28.05 314.28 23.40Q314.90 18.75 315.75 14.35Q316.60 9.95 318.10 7.27Q319.60 4.60 321.70 4.60Q323.60 4.60 324.60 5.82Q325.60 7.05 325.60 8.35Q325.60 9.45 325.05 10.82Q324.50 12.20 323.78 13.38Q323.05 14.55 321.90 16Q320.75 17.45 320.00 18.30Q319.25 19.15 318.20 20.30Q317.15 21.45 317.05 21.55L316.75 23.90Q318.30 21.80 321.08 19.92Q323.85 18.05 325.85 18.05Q331.00 18.05 331.00 23.30Q331.00 26.05 328.88 30.38Q326.75 34.70 326.75 36.85Q326.75 40.70 329.70 40.70Q331.45 40.70 332.83 39.38Q334.20 38.05 334.20 36.40Q334.20 35.15 333.45 34.15Q333.25 34.95 332.55 35.67Q331.85 36.40 330.85 36.40Q330.05 36.40 329.55 35.73Q329.05 35.05 329.05 34.25Q329.05 33.20 329.88 32.33Q330.70 31.45 332.25 31.45Q333.95 31.45 335.08 32.92Q336.20 34.40 336.20 36.50Q336.20 39.35 334.38 41.08Q332.55 42.80 329.70 42.80Q327.05 42.80 325.63 41.20Q324.20 39.60 324.20 37.10Q324.20 34.70 326.35 30.38Q328.50 26.05 328.50 23.55Q328.50 20.65 325.65 20.65Q323.80 20.65 320.98 22.75Q318.15 24.85 316.30 27.45Q315.05 37.70 313.20 42.75Q313.15 42.90 312.80 42.90Q312.00 42.90 311.43 42.55Q310.85 42.20 310.85 41.65Q310.85 41.45 311.00 41M319.60 9.90Q318.40 13.15 317.70 17.40Q319.85 15.15 321.43 12.70Q323.00 10.25 323.00 8.65Q323.00 8 322.65 7.45Q322.30 6.90 321.65 6.90Q320.70 6.90 319.60 9.90ZM348.45 4.60Q350.30 4.60 351.50 5.80Q352.70 7 352.70 8.85Q352.70 10.95 351.30 12.20Q349.90 13.45 348.00 13.45Q346.10 13.45 344.90 12.30Q343.70 11.15 343.70 9.30Q343.70 7.45 345.03 6.02Q346.35 4.60 348.45 4.60M348.25 7.15Q347.30 7.15 346.63 7.67Q345.95 8.20 345.95 9.20Q345.95 11 348.00 11Q348.95 11 349.65 10.50Q350.35 10 350.35 9Q350.35 7.15 348.25 7.15M350.40 39.15Q349.10 38.55 349.10 37.20Q349.10 36.25 349.75 35.55Q350.40 34.85 351.40 34.85Q352.35 34.85 353.05 35.60Q353.75 36.35 353.75 37.35Q353.75 39.65 351.20 41.20Q348.65 42.75 346.05 42.75Q344.05 42.75 342.73 41.70Q341.40 40.65 341.40 38.60Q341.40 36.35 342.90 32.67Q344.40 29 345.90 25.68Q347.40 22.35 347.40 21Q347.40 19.70 346.10 19.70Q345.00 19.70 343.38 20.50Q341.75 21.30 341.25 22.10Q341.85 22.30 342.28 22.80Q342.70 23.30 342.70 23.95Q342.70 24.75 342.15 25.35Q341.60 25.95 340.85 25.95Q339.00 25.95 339.00 22.95Q339.00 20.60 341.23 19.10Q343.45 17.60 346.00 17.60Q347.70 17.60 348.80 18.50Q349.90 19.40 349.90 21.15Q349.90 22.30 348.43 25.60Q346.95 28.90 345.50 32.52Q344.05 36.15 344.05 38.20Q344.05 40.50 346.20 40.50Q348.90 40.50 350.40 39.15Z"/></g></g></svg>