<?xml version="1.0" standalone="no"?>
<!DOCTYPE svg PUBLIC "-//W3C//DTD SVG 20010904//EN"
 "http://www.w3.org/TR/2001/REC-SVG-20010904/DTD/svg10.dtd">
<svg version="1.0" xmlns="http://www.w3.org/2000/svg"
 width="401.000000pt" height="402.000000pt" viewBox="0 0 401.000000 402.000000"
 preserveAspectRatio="xMidYMid meet">

<g transform="translate(0.000000,402.000000) scale(0.100000,-0.100000)"
fill="#000000" stroke="none">
<path d="M144 2067 l-2 -1882 764 -1 764 -1 0 513 c0 283 4 514 8 514 9 0 513
-506 826 -829 l188 -193 548 -2 549 -1 -4 40 c-3 22 -7 96 -11 165 l-6 125
-119 110 c-104 96 -303 298 -639 650 -86 90 -140 154 -140 168 0 3 209 6 465
8 292 3 467 8 472 14 5 6 7 60 5 121 l-4 111 -599 -5 -599 -5 -166 164 c-91
90 -170 172 -175 182 -8 14 18 44 150 177 l160 160 611 4 c337 3 614 6 615 8
2 2 5 57 6 123 l1 120 -481 0 c-264 0 -481 3 -481 7 0 4 39 47 88 95 94 95
420 428 647 663 77 80 153 154 168 165 l28 21 2 188 2 187 -520 -3 c-324 -2
-526 -7 -536 -13 -8 -5 -146 -147 -306 -315 -402 -422 -726 -750 -741 -750 -9
0 -12 85 -12 383 0 210 -3 453 -7 540 l-6 157 -756 0 -756 0 -1 -1883z m618
1098 l3 -545 -192 0 -193 0 0 348 c0 192 3 437 7 545 l6 197 183 0 184 0 2
-545z m658 193 c0 -373 16 -978 25 -1010 4 -10 10 -18 13 -18 4 0 320 310 702
690 l695 690 348 0 c228 0 347 -3 347 -10 0 -16 -184 -204 -927 -948 -381
-381 -693 -698 -693 -705 0 -11 223 -236 544 -547 76 -74 231 -232 344 -350
113 -118 318 -331 454 -472 l249 -257 -353 -3 -353 -3 -551 550 c-696 695
-822 815 -830 795 -4 -8 -9 -316 -12 -683 -4 -581 -6 -667 -19 -663 -8 3 -101
6 -206 6 l-192 0 0 1548 c0 851 1 1591 3 1645 l2 97 205 0 205 0 0 -352z
m-658 -1255 c3 -153 6 -308 7 -345 l1 -68 -184 0 c-101 0 -190 2 -198 5 -10 4
-12 69 -10 345 l3 340 188 0 189 0 4 -277z m-141 -653 l139 0 0 -515 0 -515
-187 0 -188 0 0 508 c0 279 1 513 3 521 1 10 13 12 48 7 26 -3 109 -6 185 -6z"/>
<path d="M2005 3851 c-78 -19 -145 -92 -145 -158 1 -43 33 -105 74 -141 71
-62 191 -37 245 52 35 58 45 108 28 148 -17 39 -64 79 -116 97 -37 12 -42 12
-86 2z"/>
<path d="M1942 543 c-54 -26 -82 -68 -82 -121 0 -57 26 -104 72 -129 45 -24
170 -24 216 1 62 33 88 106 58 164 -16 31 -61 74 -93 91 -32 16 -133 13 -171
-6z"/>
</g>
</svg>
